<svg width="45" height="46" viewBox="0 0 45 46" fill="none" xmlns="http://www.w3.org/2000/svg">
<g clip-path="url(#clip0_50_52)">
<path d="M2.02734 4.38965L40.8495 43.2118" stroke="white" stroke-width="3.72222" stroke-linecap="round"/>
<path d="M8.53906 8.27832C8.19383 8.34297 7.96357 8.42521 7.78223 8.51758C7.08185 8.87444 6.51214 9.44415 6.15527 10.1445C6.00701 10.4356 5.88598 10.8532 5.81934 11.6689C5.75093 12.5066 5.75 13.5907 5.75 15.1846V30.8174C5.75 32.4113 5.75092 33.4954 5.81934 34.333C5.88599 35.1487 6.00701 35.5664 6.15527 35.8574C6.45248 36.4406 6.89849 36.9317 7.44336 37.2861L19.0781 25.6514C19.4249 25.3046 19.7635 24.9643 20.0723 24.7021C20.3976 24.426 20.8106 24.1292 21.3496 23.9541C22.0037 23.7416 22.7021 23.7147 23.3672 23.874L23.6504 23.9541L23.8467 24.0254C24.2911 24.2034 24.6431 24.4606 24.9277 24.7021C25.0515 24.8072 25.1796 24.9252 25.3115 25.0508L40.2109 39.9512C39.8089 40.2769 39.3733 40.5633 38.9072 40.8008C38.004 41.261 37.0421 41.4448 35.9961 41.5303C34.9718 41.6139 33.7102 41.6123 32.1777 41.6123H12.8223C11.2896 41.6123 10.0273 41.614 9.00293 41.5303C7.9572 41.4448 6.99574 41.2607 6.09277 40.8008C4.6921 40.0871 3.5526 38.9475 2.83887 37.5469C2.37887 36.6439 2.19485 35.6825 2.10938 34.6367C2.02568 33.6124 2.02734 32.3501 2.02734 30.8174V15.1846C2.02734 13.6519 2.02569 12.3896 2.10938 11.3652C2.19484 10.3194 2.37887 9.35809 2.83887 8.45508C3.48205 7.19277 4.47124 6.14335 5.68555 5.42578L8.53906 8.27832ZM22.4805 27.54C22.3145 27.6809 22.1 27.8941 21.71 28.2842L12.1074 37.8857C12.3336 37.8861 12.5719 37.8896 12.8223 37.8896H32.1777C32.4278 37.8896 32.6656 37.8861 32.8916 37.8857L23.2891 28.2842C22.899 27.8941 22.6845 27.6809 22.5186 27.54C22.5119 27.5344 22.505 27.5294 22.499 27.5244C22.4932 27.5292 22.4869 27.5346 22.4805 27.54ZM32.1777 4.38965C33.7102 4.38965 34.9718 4.388 35.9961 4.47168C37.0421 4.55716 38.0041 4.741 38.9072 5.20117C40.3079 5.9149 41.4465 7.0544 42.1602 8.45508C42.6202 9.35809 42.8042 10.3194 42.8896 11.3652C42.9733 12.3896 42.9717 13.6519 42.9717 15.1846V30.8174C42.9717 32.3501 42.9733 33.6124 42.8896 34.6367C42.839 35.2567 42.7506 35.8461 42.5938 36.4121L39.2344 33.0527C39.2467 32.4356 39.25 31.7057 39.25 30.8174V29.3555L34.4561 24.5615C34.066 24.1715 33.8515 23.9583 33.6855 23.8174C33.6789 23.8118 33.672 23.8067 33.666 23.8018C33.6601 23.8066 33.654 23.8119 33.6475 23.8174C33.4815 23.9583 33.2672 24.1713 32.877 24.5615L31.8096 25.6279L29.1777 22.9961L30.2451 21.9297C30.5918 21.583 30.9296 21.2426 31.2383 20.9805C31.5637 20.7042 31.9774 20.4066 32.5166 20.2314C33.2639 19.9888 34.0691 19.9887 34.8164 20.2314C35.3555 20.4067 35.7694 20.7043 36.0947 20.9805C36.4034 21.2425 36.7413 21.5831 37.0879 21.9297L39.25 24.0918V15.1846C39.25 13.5906 39.2481 12.5066 39.1797 11.6689C39.113 10.8532 38.992 10.4356 38.8438 10.1445C38.487 9.44434 37.9179 8.87444 37.2178 8.51758C36.9267 8.36929 36.509 8.24831 35.6934 8.18164C34.8558 8.11321 33.7717 8.1123 32.1777 8.1123H14.2949L10.585 4.40234C11.2562 4.38989 12.0005 4.38965 12.8223 4.38965H32.1777ZM16.2676 16.0078C15.942 15.7273 15.5192 15.5568 15.0557 15.5566C14.0278 15.5566 13.1943 16.3901 13.1943 17.418C13.1946 18.4456 14.028 19.2783 15.0557 19.2783C16.0831 19.278 16.9157 18.4454 16.916 17.418C16.916 16.9501 16.742 16.5233 16.457 16.1963L20.0908 19.8301C19.1907 21.7054 17.2748 23.0008 15.0557 23.001C11.9723 23.001 9.47197 20.5013 9.47168 17.418C9.47168 15.1989 10.7663 13.2814 12.6416 12.3809L16.2676 16.0078Z" fill="white"/>
</g>
<defs>
<clipPath id="clip0_50_52">
<rect width="44.6667" height="44.6667" fill="white" transform="translate(0.166016 0.666992)"/>
</clipPath>
</defs>
</svg>
