<svg width="100" height="100" viewBox="0 0 100 100" fill="none" xmlns="http://www.w3.org/2000/svg">
<path d="M87.215 56.71C88.35 54.555 89 52.105 89 49.5C89 42.879 84.841 37.243 78.999 35.022C78.999 35.015 79 35.008 79 35C79 23.402 69.598 14 58 14C48.216 14 40.019 20.701 37.687 29.757C36.211 29.272 34.638 29 33 29C25.308 29 18.977 34.793 18.11 42.252C12.906 43.353 9 47.969 9 53.5C9 59.851 14.149 65 20.5 65C20.677 65 20.852 64.988 21.026 64.978C21.022 65.153 21 65.324 21 65.5C21 76.822 30.178 86 41.5 86C47.937 86 53.675 83.028 57.434 78.386C59.612 80.611 62.64 82 66 82C70.65 82 74.674 79.35 76.666 75.482C77.718 75.817 78.837 76 80 76C86.075 76 91 71.075 91 65C91 61.689 89.53 58.727 87.215 56.71Z" fill="#C7EDE6"/>
<path d="M78.5 71.5V72H81.5V71.5C81.5 71.5 85.742 71.5 87 71.5C89.485 71.5 91.5 69.485 91.5 67C91.5 64.667 89.718 62.771 87.445 62.545C87.467 62.364 87.5 62.187 87.5 62C87.5 59.515 85.485 57.5 83 57.5C81.562 57.5 80.297 58.186 79.473 59.236C79.333 56.6 77.171 54.5 74.5 54.5C71.739 54.5 69.5 56.739 69.5 59.5C69.5 59.946 69.577 60.37 69.687 60.782C69.045 60.005 68.086 59.5 67 59.5C65.219 59.5 63.766 60.835 63.545 62.555C63.364 62.533 63.187 62.5 63 62.5C60.515 62.5 58.5 64.515 58.5 67C58.5 69.485 60.515 71.5 63 71.5C65.485 71.5 72.5 71.5 72.5 71.5H78.5Z" fill="#FDFCEF"/>
<path d="M74.5 54C71.467 54 69 56.467 69 59.5C69 59.516 69 59.531 69 59.547C68.398 59.192 67.71 59 67 59C65.169 59 63.589 60.261 63.142 62.005C63.095 62.002 63.048 62 63 62C60.243 62 58 64.243 58 67C58 69.757 60.243 72 63 72H78.5C78.776 72 79 71.776 79 71.5C79 71.224 78.776 71 78.5 71H63C60.794 71 59 69.206 59 67C59 64.794 60.794 63 63 63C63.117 63 63.23 63.017 63.343 63.032L63.484 63.051C63.505 63.054 63.525 63.055 63.546 63.055C63.792 63.055 64.008 62.87 64.041 62.618C64.232 61.125 65.504 60 67 60C67.885 60 68.723 60.401 69.301 61.1C69.399 61.218 69.542 61.282 69.687 61.282C69.765 61.282 69.843 61.264 69.915 61.226C70.124 61.119 70.229 60.88 70.169 60.653C70.054 60.218 70 59.852 70 59.5C70 57.019 72.019 55 74.5 55C76.881 55 78.847 56.872 78.974 59.263C78.985 59.471 79.124 59.65 79.323 59.713C79.373 59.729 79.424 59.737 79.475 59.737C79.625 59.737 79.771 59.668 79.867 59.545C80.638 58.563 81.779 58 83 58C85.206 58 87 59.794 87 62C87 62.117 86.983 62.23 86.968 62.343L86.949 62.484C86.933 62.618 86.971 62.752 87.055 62.857C87.139 62.962 87.262 63.029 87.395 63.042C89.451 63.247 91 64.949 91 67C91 69.206 89.206 71 87 71H81.5C81.224 71 81 71.224 81 71.5C81 71.776 81.224 72 81.5 72H87C89.757 72 92 69.757 92 67C92 64.603 90.311 62.587 87.997 62.123C87.999 62.082 88 62.041 88 62C88 59.243 85.757 57 83 57C81.824 57 80.707 57.416 79.817 58.164C79.219 55.76 77.055 54 74.5 54Z" fill="#472B29"/>
<path d="M73.0002 61C71.5972 61 70.3912 61.999 70.0872 63.341C69.7202 63.119 69.3012 63 68.8752 63C67.6732 63 66.6772 63.897 66.5222 65.068C66.3192 65.022 66.1262 65 65.9382 65C64.4092 65 63.1272 66.2 63.0202 67.732C63.0102 67.87 63.1142 67.99 63.2512 68C63.2572 68 63.2632 68 63.2692 68C63.3992 68 63.5092 67.899 63.5182 67.768C63.6072 66.497 64.6692 65.5 65.9372 65.5C66.1662 65.5 66.4072 65.541 66.6752 65.627C66.6972 65.634 66.7202 65.637 66.7422 65.637C66.7972 65.637 66.8522 65.617 66.8982 65.583C66.9622 65.537 67.0002 65.455 67.0002 65.375C67.0002 64.341 67.8412 63.5 68.8752 63.5C69.3222 63.5 69.7602 63.668 70.1062 63.973C70.1532 64.014 70.2122 64.036 70.2712 64.036C70.3032 64.036 70.3342 64.03 70.3642 64.017C70.4522 63.982 70.5122 63.9 70.5192 63.805C70.6232 62.512 71.7122 61.5 73.0002 61.5C73.2082 61.5 73.4252 61.534 73.6822 61.607C73.7052 61.614 73.7292 61.617 73.7522 61.617C73.8612 61.617 73.9592 61.544 73.9912 61.435C74.0292 61.302 73.9522 61.164 73.8192 61.126C73.5172 61.04 73.2562 61 73.0002 61ZM86.8832 62.5C85.5572 62.5 84.3752 63.397 84.0092 64.682C83.9712 64.815 84.0482 64.953 84.1812 64.991C84.2052 64.997 84.2282 65 84.2502 65C84.3592 65 84.4592 64.928 84.4902 64.818C84.7952 63.748 85.7792 63 86.8832 63C87.0002 63 87.1132 63.014 87.2252 63.029C87.2372 63.031 87.2482 63.032 87.2602 63.032C87.3812 63.032 87.4892 62.94 87.5062 62.815C87.5252 62.678 87.4292 62.552 87.2922 62.534C87.1582 62.516 87.0222 62.5 86.8832 62.5Z" fill="#472B29"/>
<path d="M31.5 76H21.5C21.224 76 21 75.776 21 75.5C21 75.224 21.224 75 21.5 75H31.5C31.776 75 32 75.224 32 75.5C32 75.776 31.777 76 31.5 76ZM34.5 76H33.5C33.224 76 33 75.776 33 75.5C33 75.224 33.224 75 33.5 75H34.5C34.776 75 35 75.224 35 75.5C35 75.776 34.777 76 34.5 76ZM39.491 78H30.5C30.224 78 30 77.776 30 77.5C30 77.224 30.224 77 30.5 77H39.491C39.767 77 39.991 77.224 39.991 77.5C39.991 77.776 39.767 78 39.491 78ZM28.5 78H27.5C27.224 78 27 77.776 27 77.5C27 77.224 27.224 77 27.5 77H28.5C28.776 77 29 77.224 29 77.5C29 77.776 28.777 78 28.5 78ZM25.5 78H23.5C23.224 78 23 77.776 23 77.5C23 77.224 23.224 77 23.5 77H25.5C25.776 77 26 77.224 26 77.5C26 77.776 25.777 78 25.5 78ZM31.5 80H29.5C29.224 80 29 79.776 29 79.5C29 79.224 29.224 79 29.5 79H31.5C31.776 79 32 79.224 32 79.5C32 79.776 31.776 80 31.5 80ZM34.5 71C34.323 71 33.677 71 33.5 71C33.224 71 33 71.224 33 71.5C33 71.776 33.224 72 33.5 72C33.677 72 34.323 72 34.5 72C34.776 72 35 71.776 35 71.5C35 71.224 34.776 71 34.5 71ZM34.5 73C34.323 73 29.677 73 29.5 73C29.224 73 29 73.224 29 73.5C29 73.776 29.224 74 29.5 74C29.677 74 34.323 74 34.5 74C34.776 74 35 73.776 35 73.5C35 73.224 34.776 73 34.5 73ZM39.5 75C39.323 75 36.677 75 36.5 75C36.224 75 36 75.224 36 75.5C36 75.776 36.224 76 36.5 76C36.677 76 39.323 76 39.5 76C39.776 76 40 75.776 40 75.5C40 75.224 39.776 75 39.5 75Z" fill="white"/>
<path d="M72.5 24H62.5C62.224 24 62 23.776 62 23.5C62 23.224 62.224 23 62.5 23H72.5C72.776 23 73 23.224 73 23.5C73 23.776 72.776 24 72.5 24ZM76.5 24H74.5C74.224 24 74 23.776 74 23.5C74 23.224 74.224 23 74.5 23H76.5C76.776 23 77 23.224 77 23.5C77 23.776 76.776 24 76.5 24ZM81.5 26H71.5C71.224 26 71 25.776 71 25.5C71 25.224 71.224 25 71.5 25H81.5C81.776 25 82 25.224 82 25.5C82 25.776 81.777 26 81.5 26ZM69.5 26H68.5C68.224 26 68 25.776 68 25.5C68 25.224 68.224 25 68.5 25H69.5C69.776 25 70 25.224 70 25.5C70 25.776 69.776 26 69.5 26ZM66.47 26H64.5C64.224 26 64 25.776 64 25.5C64 25.224 64.224 25 64.5 25H66.47C66.746 25 66.97 25.224 66.97 25.5C66.97 25.776 66.746 26 66.47 26ZM75.5 22H70.5C70.224 22 70 21.776 70 21.5C70 21.224 70.224 21 70.5 21H75.5C75.776 21 76 21.224 76 21.5C76 21.776 75.777 22 75.5 22ZM72.5 28H70.5C70.224 28 70 27.776 70 27.5C70 27.224 70.224 27 70.5 27H72.5C72.776 27 73 27.224 73 27.5C73 27.776 72.776 28 72.5 28Z" fill="white"/>
<path d="M37.81 47.5859C38.974 40.8139 44.859 35.6569 51.963 35.6569C55.19 35.6569 58.159 36.7329 60.558 38.5289L66.685 31.9309C62.676 28.6449 57.551 26.6719 51.963 26.6719C40.517 26.6719 31.011 34.9479 29.084 45.8409L37.81 47.5859Z" fill="#EA5167"/>
<path d="M60.4964 61.6C58.1094 63.365 55.1584 64.41 51.9624 64.41C44.4464 64.41 38.2874 58.641 37.6494 51.291L29.1104 54.137C31.0974 64.956 40.5694 73.156 51.9624 73.156C57.9634 73.156 63.4324 70.881 67.5564 67.147L60.4964 61.6Z" fill="#00A698"/>
<path d="M69.6924 45.7207H65.6774H52.4414V54.3467H65.6784C64.6504 57.6187 62.4844 60.3857 59.6444 62.1857L66.5884 67.9727C71.8434 63.7117 75.2044 57.2067 75.2044 49.9147C75.2044 48.4827 75.0684 47.0827 74.8194 45.7217L69.6924 45.7207Z" fill="#48BED8"/>
<path d="M37.5857 50.0329C37.5857 47.9409 38.0427 45.9579 38.8467 44.1649L31.3537 39.1699C29.6747 42.3839 28.7197 46.0359 28.7197 49.9139C28.7197 53.5409 29.5517 56.9729 31.0327 60.0309L38.5437 54.8249C38.1927 53.5809 37.5857 51.3899 37.5857 50.0329Z" fill="#FDE751"/>
<path d="M51.9618 73.825C38.7768 73.825 28.0488 63.098 28.0488 49.912C28.0488 36.726 38.7768 26 51.9618 26C57.4728 26 62.8518 27.922 67.1078 31.411L67.6598 31.863L60.6378 39.426L60.1548 39.065C57.7608 37.274 54.9278 36.327 51.9618 36.327C44.4048 36.327 38.2568 42.475 38.2568 50.032C38.2568 57.589 44.4048 63.737 51.9618 63.737C57.6698 63.737 62.6918 60.269 64.7318 55.016H51.7708V45.048H75.3788L75.4788 45.598C75.7418 47.038 75.8748 48.49 75.8748 49.912C75.8748 63.098 65.1478 73.825 51.9618 73.825ZM51.9618 27.342C39.5168 27.342 29.3918 37.467 29.3918 49.912C29.3918 62.357 39.5168 72.482 51.9618 72.482C64.4068 72.482 74.5318 62.357 74.5318 49.912C74.5318 48.751 74.4378 47.569 74.2518 46.39H53.1118V53.674H66.5918L66.3178 54.546C64.3378 60.846 58.5678 65.079 51.9608 65.079C43.6638 65.079 36.9138 58.329 36.9138 50.032C36.9138 41.735 43.6638 34.985 51.9608 34.985C55.0188 34.985 57.9458 35.9 60.4668 37.637L65.6978 32.004C61.7748 28.993 56.9248 27.342 51.9618 27.342Z" fill="#472B29"/>
<path d="M36.5 36.5C36.5 36.5 38.067 36.5 40 36.5C41.933 36.5 43.5 34.933 43.5 33C43.5 31.219 42.165 29.766 40.445 29.545C40.473 29.366 40.5 29.187 40.5 29C40.5 27.067 38.933 25.5 37 25.5C35.968 25.5 35.05 25.955 34.41 26.665C34.026 24.857 32.423 23.5 30.5 23.5C28.291 23.5 26.5 25.291 26.5 27.5C26.5 27.691 26.53 27.874 26.556 28.058C26.128 27.714 25.592 27.5 25 27.5C23.772 27.5 22.755 28.387 22.545 29.555C22.366 29.527 22.187 29.5 22 29.5C20.067 29.5 18.5 31.067 18.5 33C18.5 34.933 20.067 36.5 22 36.5C23.933 36.5 29.5 36.5 29.5 36.5V37H36.5V36.5Z" fill="#FDFCEF"/>
<path d="M38.25 31.9993C38.112 31.9993 38 31.8873 38 31.7493C38 30.5263 38.995 29.5312 40.218 29.5312C40.252 29.5402 40.955 29.5302 41.462 29.6672C41.595 29.7032 41.674 29.8403 41.638 29.9733C41.602 30.1073 41.465 30.1863 41.332 30.1493C40.888 30.0293 40.232 30.0292 40.219 30.0312C39.271 30.0312 38.5 30.8023 38.5 31.7493C38.5 31.8873 38.388 31.9993 38.25 31.9993ZM31.5 35.9993C31.3674 35.9993 31.2402 36.0519 31.1464 36.1457C31.0527 36.2395 31 36.3666 31 36.4993C31 36.6319 31.0527 36.759 31.1464 36.8528C31.2402 36.9466 31.3674 36.9993 31.5 36.9993C31.6326 36.9993 31.7598 36.9466 31.8536 36.8528C31.9473 36.759 32 36.6319 32 36.4993C32 36.3666 31.9473 36.2395 31.8536 36.1457C31.7598 36.0519 31.6326 35.9993 31.5 35.9993Z" fill="#472B29"/>
<path d="M40 37H36.5C36.224 37 36 36.776 36 36.5C36 36.224 36.224 36 36.5 36H40C41.654 36 43 34.654 43 33C43 31.504 41.875 30.232 40.382 30.041C40.248 30.023 40.127 29.953 40.046 29.845C39.965 29.737 39.931 29.601 39.952 29.468C39.975 29.314 40 29.16 40 29C40 27.346 38.654 26 37 26C36.15 26 35.362 26.355 34.781 27C34.656 27.139 34.46 27.198 34.281 27.148C34.099 27.099 33.96 26.953 33.921 26.769C33.58 25.165 32.141 24 30.5 24C28.57 24 27 25.57 27 27.5C27 27.643 27.021 27.78 27.041 27.918C27.07 28.121 26.978 28.356 26.799 28.458C26.62 28.56 26.403 28.576 26.243 28.448C25.878 28.155 25.449 28 25 28C24.034 28 23.208 28.691 23.037 29.644C22.989 29.911 22.741 30.09 22.468 30.049C22.314 30.025 22.16 30 22 30C20.346 30 19 31.346 19 33C19 34.654 20.346 36 22 36H29.5C29.776 36 30 36.224 30 36.5C30 36.776 29.776 37 29.5 37H22C19.794 37 18 35.206 18 33C18 30.794 19.794 29 22 29C22.059 29 22.116 29.002 22.174 29.006C22.588 27.82 23.711 27 25 27C25.349 27 25.689 27.061 26.011 27.18C26.176 24.847 28.126 23 30.5 23C32.331 23 33.966 24.127 34.653 25.774C35.333 25.276 36.155 25 37 25C39.206 25 41 26.794 41 29C41 29.048 40.999 29.095 40.996 29.142C42.739 29.59 44 31.169 44 33C44 35.206 42.206 37 40 37Z" fill="#472B29"/>
<path d="M34.5 36C34.341 36 33.659 36 33.5 36C33.224 36 33 36.224 33 36.5C33 36.776 33.224 37 33.5 37C33.659 37 34.341 37 34.5 37C34.776 37 35 36.776 35 36.5C35 36.224 34.776 36 34.5 36Z" fill="#472B29"/>
</svg>
